<svg xmlns="http://www.w3.org/2000/svg" xmlns:xlink="http://www.w3.org/1999/xlink" viewBox="0 0 22 22"><path d="M 20.707 1.293 C 21.098 1.683 21.098 2.317 20.707 2.707 L 2.707 20.707 C 2.317 21.098 1.683 21.098 1.293 20.707 C 0.902 20.317 0.902 19.683 1.293 19.293 L 19.293 1.293 C 19.683 0.902 20.317 0.902 20.707 1.293 Z" fill="rgb(0,0,0)"></path><path d="M 7 2 C 7 1.448 7.448 1 8 1 L 20 1 C 20.552 1 21 1.448 21 2 L 21 14 C 21 14.552 20.552 15 20 15 C 19.448 15 19 14.552 19 14 L 19 3 L 8 3 C 7.448 3 7 2.552 7 2 Z" fill="rgb(0,0,0)"></path></svg>