<?xml version="1.0" encoding="utf-8"?>
<svg version="1.1" id="Layer_1" xmlns="http://www.w3.org/2000/svg" xmlns:xlink="http://www.w3.org/1999/xlink" x="0px" y="0px"
	 viewBox="0 0 331.4 337" style="enable-background:new 0 0 331.4 337;" xml:space="preserve">

 <style>
    path {
      fill: #050608; <!-- set icon color for light mode -->
    }

    @media (prefers-color-scheme: dark) {
      path {
        fill: white; <!-- set icon color for dark mode -->
      }
    }
  </style>

<path class="st3" d="M318.4,101.2c-8.3-19.7-20.3-37.5-35.5-52.7c-15.2-15.2-32.9-27.2-52.7-35.5c-20.4-8.6-42.1-13-64.5-13
	s-44.1,4.4-64.5,13c-19.7,8.3-37.5,20.3-52.7,35.5C33.3,63.8,21.4,81.5,13,101.2c-8.6,20.4-13,42.1-13,64.5s4.4,44.1,13,64.5
	c8.3,19.7,20.3,37.5,35.5,52.7c15.2,15.2,32.9,27.2,52.7,35.5c20.4,8.6,42.1,13,64.5,13s44.1-4.4,64.5-13
	c19.7-8.3,37.5-20.3,52.7-35.5c15.2-15.2,27.2-32.9,35.5-52.7c8.6-20.4,13-42.1,13-64.5S327,121.6,318.4,101.2z M241.7,254.2
	c-7.8,0.1-14.3-6.2-14.4-14c-0.1-7.8,6.2-14.3,14-14.4c7.8-0.1,14.3,6.2,14.4,14C255.8,247.6,249.5,254.1,241.7,254.2z M276.5,214.7
	l-0.5,1.1c-1.3,2.6-3.3,4.8-6,6.3c-1.1,0.6-2.2,1.1-3.3,1.4c-6.4,1.8-13.5-1-16.9-7c-2.5-4.4-2.5-9.6-0.4-13.8
	c5.2-11.4,8.1-24.2,8.1-37.5c0-50.4-40.8-91.2-91.2-91.2S75,114.8,75,165.2s40.8,91.2,91.2,91.2c13.3,0,25.9-2.8,37.3-8
	c3.3-1.4,7.1-1.5,10.5-0.4c1.5,0.5,3,1.3,4.4,2.3c6.6,5,8,14.5,2.9,21.1c-1.5,2-3.4,3.5-5.4,4.5c-0.3,0.1-0.5,0.2-0.8,0.4
	c-15.1,6.8-31.9,10.6-49.5,10.6c-66.9,0-121.2-54.2-121.2-121.2S98.8,44.5,165.7,44.5s121.2,54.2,121.2,121.2
	C286.9,183.2,283.2,199.7,276.5,214.7z"/>
</svg>
