<?xml version="1.0" encoding="utf-8"?>
<!-- Generator: Adobe Illustrator 24.2.3, SVG Export Plug-In . SVG Version: 6.00 Build 0)  -->
<svg version="1.1" id="Layer_1" xmlns="http://www.w3.org/2000/svg" xmlns:xlink="http://www.w3.org/1999/xlink" x="0px" y="0px"
	 viewBox="0 0 520.2 97.9" style="enable-background:new 0 0 520.2 97.9;" xml:space="preserve">
<style type="text/css">
	.st0{fill:#FFFFFF;}
	.st1{fill:#50B89A;}
</style>
<path class="st0" d="M59.3,97.9H46.7V72.3c-2.3,1.9-4.8,3.4-7.6,4.5c-3,1.3-6.2,1.9-9.5,1.9c-4,0-7.9-0.8-11.6-2.3
	c-3.5-1.5-6.6-3.7-9.3-6.4c-2.7-2.7-4.9-5.8-6.4-9.3c-3.1-7.5-3.1-15.8,0-23.3c1.5-3.5,3.7-6.6,6.4-9.3s5.8-4.9,9.3-6.4
	c7.5-3.1,15.8-3.1,23.3,0c3.5,1.5,6.7,3.6,9.4,6.3c2.7,2.6,4.9,5.8,6.3,9.3c1.5,3.7,2.3,7.8,2.3,11.8C59.3,49.1,59.3,97.9,59.3,97.9
	z M46.7,49.1c0-2.3-0.5-4.5-1.4-6.6c-0.8-2-2.1-3.9-3.7-5.4c-1.5-1.6-3.4-2.9-5.4-3.7c-4.2-1.9-8.9-1.9-13.1,0
	c-2,0.8-3.9,2.1-5.4,3.7c-1.6,1.5-2.9,3.4-3.7,5.4c-1.9,4.2-1.9,8.9,0,13.1c0.8,2,2.1,3.9,3.7,5.4c1.5,1.6,3.4,2.9,5.4,3.7
	c4.2,1.9,8.9,1.9,13.1,0c2-0.8,3.9-2.1,5.4-3.7C44.8,57.9,46.6,53.6,46.7,49.1z"/>
<path class="st0" d="M108.2,21.8h12.7v31.9c0,3.3-0.7,6.6-2,9.6c-1.2,2.9-3,5.6-5.3,7.9c-2.2,2.3-4.9,4.1-7.8,5.4
	c-6.2,2.7-13.1,2.7-19.3,0c-2.9-1.3-5.6-3.1-7.9-5.4c-2.2-2.3-4-5-5.3-7.9c-1.4-3-2.1-6.4-2-9.7V21.8h12.6v31.9c0,1.6,0.4,3.2,1,4.7
	c1.3,2.9,3.6,5.2,6.5,6.4c3,1.2,6.4,1.2,9.4,0c1.4-0.6,2.7-1.5,3.8-2.6c2.4-2.2,3.7-5.3,3.6-8.5L108.2,21.8z"/>
<path class="st0" d="M144.4,49.8c0.1,2.2,0.6,4.3,1.6,6.3c0.9,2,2.1,3.7,3.7,5.2c3.2,3,7.3,4.6,11.7,4.6c3.4,0.1,6.8-0.8,9.7-2.7
	c2.7-1.9,4.7-4.5,5.9-7.5h13.9c-1.1,3.8-2.8,7.3-4.9,10.6c-1.9,2.7-4.3,5.1-7,7.1c-2.6,1.8-5.4,3.1-8.4,3.9c-3,0.9-6.1,1.3-9.2,1.3
	c-4,0-7.9-0.8-11.6-2.4c-3.5-1.5-6.7-3.6-9.4-6.3c-2.6-2.7-4.8-5.9-6.3-9.3c-3.1-7.5-3.1-15.8,0-23.3c3-7,8.7-12.7,15.7-15.7
	c3.7-1.5,7.6-2.3,11.6-2.3c4.3-0.1,8.5,0.8,12.4,2.5c3.5,1.6,6.6,3.9,9.2,6.7c2.6,2.9,4.6,6.2,6,9.8c1.4,3.7,2.1,7.6,2.2,11.5
	L144.4,49.8z M177,41.3c-1.2-3.1-3.2-5.8-5.8-7.8c-2.8-2.1-6.2-3.3-9.7-3.2c-3.5,0-6.9,1.1-9.7,3.2c-2.6,2-4.5,4.7-5.7,7.8H177z"/>
<path class="st0" d="M234.7,32.7c-2.4,0-4.8,0.4-7,1.3c-2.3,0.9-4.5,2.2-6.4,3.8c-2,1.7-3.6,3.8-4.7,6.2c-1.2,2.6-1.8,5.4-1.8,8.2
	v24.1h-12.6V21.8h12.6V29c1.4-1.8,3.1-3.3,5-4.6c1.8-1.2,3.7-2.2,5.7-3c3.5-1.3,7.2-2,10.9-2.1L234.7,32.7z"/>
<path class="st0" d="M280.5,21.8h12.6v32.5c0,2.7-0.4,5.4-1.1,8c-1.5,5.2-4.7,9.7-9.1,12.8c-2.5,1.7-5.3,2.9-8.2,3.5v19.3H262V78.5
	c-2.7-0.9-5.2-2.1-7.5-3.7c-2.2-1.6-4.1-3.4-5.8-5.5c-1.6-2.1-2.9-4.5-3.8-7c-0.9-2.6-1.4-5.3-1.4-8V21.8h12.9v32.5
	c-0.1,3.2,1.2,6.3,3.5,8.5c1.1,1.1,2.4,2,3.8,2.6c1.5,0.7,3.1,1,4.7,1s3.1-0.3,4.6-0.9c1.4-0.6,2.8-1.5,3.9-2.6s1.9-2.4,2.6-3.8
	c0.6-1.5,1-3.1,1-4.7V21.8z"/>
<path class="st0" d="M336.7,48.9c0-4,0.8-7.9,2.3-11.6c1.5-3.5,3.7-6.6,6.4-9.3c2.7-2.7,6-4.9,9.5-6.4c3.7-1.5,7.6-2.3,11.6-2.3
	s7.9,0.8,11.6,2.3c3.5,1.5,6.6,3.7,9.3,6.4c2.7,2.7,4.9,5.8,6.4,9.3c4.8,11.1,2.3,24.1-6.4,32.6c-2.6,2.7-5.8,4.9-9.3,6.3
	c-3.7,1.6-7.6,2.4-11.6,2.4s-7.9-0.8-11.6-2.4c-3.5-1.5-6.8-3.6-9.5-6.3c-2.7-2.7-4.9-5.8-6.4-9.3C337.5,56.9,336.7,52.9,336.7,48.9
	z M349.3,48.9c0,2.3,0.5,4.5,1.4,6.6c0.8,2,2.1,3.9,3.7,5.4c1.5,1.6,3.4,2.9,5.4,3.7c4.2,1.7,9,1.7,13.2,0c2-0.8,3.9-2.1,5.4-3.7
	c1.6-1.5,2.9-3.4,3.7-5.4c0.9-2.1,1.4-4.3,1.4-6.6s-0.5-4.5-1.4-6.6c-0.9-2-2.1-3.8-3.7-5.3c-1.5-1.6-3.4-2.9-5.4-3.7
	c-4.2-1.9-9-1.9-13.2,0c-2,0.8-3.9,2.1-5.4,3.7c-1.6,1.5-2.8,3.3-3.7,5.3C349.8,44.4,349.3,46.6,349.3,48.9L349.3,48.9z"/>
<path class="st0" d="M404.8,48.9c0-4,0.8-7.9,2.4-11.6c1.5-3.5,3.6-6.7,6.4-9.3c5.5-5.6,13.1-8.8,21-8.7c4,0,7.9,0.8,11.6,2.3
	c7,3,12.7,8.7,15.7,15.7c1.6,3.7,2.4,7.6,2.3,11.6v27.4h-12.6v-3.1c-4.9,3.6-10.9,5.5-17,5.4c-4.2,0-8.4-0.7-12.3-2.3
	c-3.5-1.4-6.7-3.6-9.3-6.3c-2.6-2.7-4.6-5.9-6-9.4C405.5,56.9,404.7,52.9,404.8,48.9z M417.5,48.9c0,2.3,0.4,4.5,1.3,6.6
	c0.9,2,2.2,3.8,3.7,5.4c1.5,1.6,3.4,2.9,5.4,3.7c2.1,0.9,4.3,1.3,6.6,1.3c2.3,0,4.5-0.4,6.6-1.2c2-0.8,3.9-2,5.5-3.5
	c1.5-1.6,2.7-3.4,3.6-5.4c0.9-2.2,1.4-4.5,1.4-6.9c0-2.3-0.5-4.5-1.4-6.6c-0.9-2-2.1-3.8-3.6-5.3c-1.6-1.6-3.4-2.8-5.5-3.7
	s-4.3-1.4-6.6-1.4c-2.3,0-4.5,0.5-6.6,1.4c-2,0.8-3.9,2.1-5.4,3.7c-1.5,1.6-2.8,3.3-3.7,5.3C417.9,44.4,417.5,46.6,417.5,48.9z"/>
<path class="st0" d="M477.3,0h12.9v76.3h-12.9V0z"/>
<path class="st1" d="M512.8,61.5L512.8,61.5c4.1,0,7.4,3.3,7.4,7.4l0,0c0,4.1-3.3,7.4-7.4,7.4l0,0c-4.1,0-7.4-3.3-7.4-7.4l0,0
	C505.4,64.8,508.7,61.5,512.8,61.5z"/>
</svg>
